<?xml version="1.0" encoding="utf-8"?>
<svg version="1.1" xmlns:xlink="http://www.w3.org/1999/xlink" width="34px" height="18px" xmlns="http://www.w3.org/2000/svg">
  <g transform="matrix(1 0 0 1 -248 -46 )">
    <path d="M 30 3.60000000000001  L 23.12 3.60000000000001  L 17 3.60000000000001  L 6 3.60000000000001  L 6 14.4  L 30 14.4  L 30 3.60000000000001  Z M 3.77777777777777 15.75  L 3.77777777777777 11.7  L 1.88888888888891 11.7  L 1.88888888888891 6.30000000000001  L 3.77777777777777 6.30000000000001  L 3.77777777777777 2.25  C 3.77777777777777 2.11875000000001  3.82204861111109 2.01093750000001  3.91059027777777 1.92656249999999  C 3.99913194444446 1.84218750000001  4.11226851851853 1.80000000000001  4.25 2  L 31.6388888888889 2  C 31.7766203703704 1.80000000000001  31.8897569444445 1.84218750000001  31.9782986111111 1.92656249999999  C 32.0668402777778 2.01093750000001  32.1111111111111 2.11875000000001  32 2.25  L 32 15.75  C 32.1111111111111 15.88125  32.0668402777778 15.9890625  31.9782986111111 16.0734375  C 31.8897569444445 16.1578125  31.7766203703704 16.2  31.6388888888889 16  L 4.25 16  C 4.11226851851853 16.2  3.99913194444446 16.1578125  3.91059027777777 16.0734375  C 3.82204861111109 15.9890625  3.77777777777777 15.88125  3.77777777777777 15.75  Z M 0.553385416666686 5.02734375  C 0.184461805555543 5.37890625  0 5.803125  0 6.30000000000001  L 0 11.7  C 0 12.196875  0.184461805555543 12.62109375  0.553385416666686 12.97265625  C 0.922309027777771 13.32421875  1.36747685185185 13.5  1.88888888888891 13.5  L 1.88888888888891 15.75  C 1.88888888888891 16.36875  2.12008101851853 16.8984375  2.58246527777777 17.3390625  C 3.04484953703701 17.7796875  3.60069444444446 18  4.25 18  L 31.6388888888889 18  C 32.2881944444445 18  32.8440393518518 17.7796875  33.3064236111111 17.3390625  C 33.7688078703704 16.8984375  34 16.36875  34 15.75  L 34 2.25  C 34 1.63125000000001  33.7688078703704 1.10156250000001  33.3064236111111 0.660937499999994  C 32.8440393518518 0.220312500000011  32.2881944444445 0  31.6388888888889 0  L 4.25 0  C 3.60069444444446 0  3.04484953703701 0.220312500000011  2.58246527777777 0.660937499999994  C 2.12008101851853 1.10156250000001  1.88888888888891 1.63125000000001  1.88888888888891 2.25  L 1.88888888888891 4.5  C 1.36747685185185 4.5  0.922309027777771 4.67578125  0.553385416666686 5.02734375  Z " fill-rule="nonzero" fill="#6a6565" stroke="none" transform="matrix(1 0 0 1 248 46 )" />
  </g>
</svg>