<?xml version="1.0" encoding="utf-8"?>
<svg version="1.1" xmlns:xlink="http://www.w3.org/1999/xlink" width="19px" height="8px" xmlns="http://www.w3.org/2000/svg">
  <g transform="matrix(1 0 0 1 -32 -54 )">
    <path d="M 2.61886160714286 6.71354166666667  C 2.68247767857143 6.74479166666667  2.71428571428571 6.78472222222222  2.71428571428571 6.83333333333333  L 2.71428571428571 7.83333333333333  C 2.71428571428571 7.88194444444444  2.68247767857143 7.921875  2.61886160714286 7.953125  C 2.55524553571429 7.984375  2.47395833333333 8  2.375 8  L 0.339285714285714 8  C 0.240327380952381 8  0.159040178571429 7.984375  0.0954241071428572 7.953125  C 0.0318080357142857 7.921875  0 7.88194444444444  0 7.83333333333333  L 0 6.83333333333333  C 0 6.78472222222222  0.0318080357142857 6.74479166666667  0.0954241071428572 6.71354166666667  C 0.159040178571429 6.68229166666667  0.240327380952381 6.66666666666667  0.339285714285714 6.66666666666667  L 2.375 6.66666666666667  C 2.47395833333333 6.66666666666667  2.55524553571429 6.68229166666667  2.61886160714286 6.71354166666667  Z M 6.69029017857143 6.046875  C 6.75390625 6.078125  6.78571428571429 6.11805555555556  6.78571428571429 6.16666666666667  L 6.78571428571429 7.83333333333333  C 6.78571428571429 7.88194444444444  6.75390625 7.921875  6.69029017857143 7.953125  C 6.62667410714286 7.984375  6.54538690476191 8  6.44642857142857 8  L 4.41071428571429 8  C 4.31175595238095 8  4.23046875 7.984375  4.16685267857143 7.953125  C 4.10323660714286 7.921875  4.07142857142857 7.88194444444444  4.07142857142857 7.83333333333333  L 4.07142857142857 6.16666666666667  C 4.07142857142857 6.11805555555556  4.10323660714286 6.078125  4.16685267857143 6.046875  C 4.23046875 6.015625  4.31175595238095 6  4.41071428571429 6  L 6.44642857142857 6  C 6.54538690476191 6  6.62667410714286 6.015625  6.69029017857143 6.046875  Z M 10.76171875 4.71354166666667  C 10.8253348214286 4.74479166666667  10.8571428571429 4.78472222222222  10.8571428571429 4.83333333333333  L 10.8571428571429 7.83333333333333  C 10.8571428571429 7.88194444444444  10.8253348214286 7.921875  10.76171875 7.953125  C 10.6981026785714 7.984375  10.6168154761905 8  10.5178571428571 8  L 8.48214285714286 8  C 8.38318452380953 8  8.30189732142857 7.984375  8.23828125 7.953125  C 8.17466517857143 7.921875  8.14285714285714 7.88194444444444  8.14285714285714 7.83333333333333  L 8.14285714285714 4.83333333333333  C 8.14285714285714 4.78472222222222  8.17466517857143 4.74479166666667  8.23828125 4.71354166666667  C 8.30189732142857 4.68229166666667  8.38318452380953 4.66666666666667  8.48214285714286 4.66666666666667  L 10.5178571428571 4.66666666666667  C 10.6168154761905 4.66666666666667  10.6981026785714 4.68229166666667  10.76171875 4.71354166666667  Z M 14.8331473214286 2.71354166666667  C 14.8967633928571 2.74479166666667  14.9285714285714 2.78472222222222  14.9285714285714 2.83333333333333  L 14.9285714285714 7.83333333333333  C 14.9285714285714 7.88194444444444  14.8967633928571 7.921875  14.8331473214286 7.953125  C 14.76953125 7.984375  14.688244047619 8  14.5892857142857 8  L 12.5535714285714 8  C 12.4546130952381 8  12.3733258928571 7.984375  12.3097098214286 7.953125  C 12.24609375 7.921875  12.2142857142857 7.88194444444444  12.2142857142857 7.83333333333333  L 12.2142857142857 2.83333333333333  C 12.2142857142857 2.78472222222222  12.24609375 2.74479166666667  12.3097098214286 2.71354166666667  C 12.3733258928571 2.68229166666667  12.4546130952381 2.66666666666667  12.5535714285714 2.66666666666667  L 14.5892857142857 2.66666666666667  C 14.688244047619 2.66666666666667  14.76953125 2.68229166666667  14.8331473214286 2.71354166666667  Z M 18.9045758928571 0.046875  C 18.9681919642857 0.078125  19 0.118055555555554  19 0.166666666666667  L 19 7.83333333333333  C 19 7.88194444444444  18.9681919642857 7.921875  18.9045758928571 7.953125  C 18.8409598214286 7.984375  18.7596726190476 8  18.6607142857143 8  L 16.625 8  C 16.5260416666667 8  16.4447544642857 7.984375  16.3811383928571 7.953125  C 16.3175223214286 7.921875  16.2857142857143 7.88194444444444  16.2857142857143 7.83333333333333  L 16.2857142857143 0.166666666666667  C 16.2857142857143 0.118055555555554  16.3175223214286 0.078125  16.3811383928571 0.046875  C 16.4447544642857 0.015625  16.5260416666667 0  16.625 0  L 18.6607142857143 0  C 18.7596726190476 0  18.8409598214286 0.015625  18.9045758928571 0.046875  Z " fill-rule="nonzero" fill="#ffffff" stroke="none" transform="matrix(1 0 0 1 32 54 )" />
  </g>
</svg>