<?xml version="1.0" encoding="utf-8"?>
<svg version="1.1" xmlns:xlink="http://www.w3.org/1999/xlink" width="28px" height="18px" xmlns="http://www.w3.org/2000/svg">
  <g transform="matrix(1 0 0 1 -559 -304 )">
    <path d="M 0.697265625 12.49453125  C 0.232421875 11.38359375  0 10.21875  0 9  C 0 7.78125  0.232421875 6.61640625  0.697265625 5.50546875  C 1.162109375 4.39453125  1.7841796875 3.43828125  2.5634765625 2.63671875  C 3.3427734375 1.83515625  4.2724609375 1.1953125  5.3525390625 0.717187499999999  C 6.4326171875 0.2390625  7.56510416666667 0  8.75 0  L 19.25 0  C 20.4348958333333 0  21.5673828125 0.2390625  22.6474609375 0.717187499999999  C 23.7275390625 1.1953125  24.6572265625 1.83515625  25.4365234375 2.63671875  C 26.2158203125 3.43828125  26.837890625 4.39453125  27.302734375 5.50546875  C 27.767578125 6.61640625  28 7.78125  28 9  C 28 10.21875  27.767578125 11.38359375  27.302734375 12.49453125  C 26.837890625 13.60546875  26.2158203125 14.56171875  25.4365234375 15.36328125  C 24.6572265625 16.16484375  23.7275390625 16.8046875  22.6474609375 17.2828125  C 21.5673828125 17.7609375  20.4348958333333 18  19.25 18  L 8.75 18  C 7.56510416666667 18  6.4326171875 17.7609375  5.3525390625 17.2828125  C 4.2724609375 16.8046875  3.3427734375 16.16484375  2.5634765625 15.36328125  C 1.7841796875 14.56171875  1.162109375 13.60546875  0.697265625 12.49453125  Z M 16.5361328125 15.63046875  C 17.3974609375 16.01015625  18.3020833333333 16.2  19.25 16.2  C 20.1979166666667 16.2  21.1025390625 16.01015625  21.9638671875 15.63046875  C 22.8251953125 15.25078125  23.5703125 14.7375  24.19921875 14.090625  C 24.828125 13.44375  25.3271484375 12.67734375  25.6962890625 11.79140625  C 26.0654296875 10.90546875  26.25 9.975  26.25 9  C 26.25 8.025  26.0654296875 7.09453125  25.6962890625 6.20859375  C 25.3271484375 5.32265625  24.828125 4.55625  24.19921875 3.909375  C 23.5703125 3.2625  22.8251953125 2.74921875  21.9638671875 2.36953125  C 21.1025390625 1.98984375  20.1979166666667 1.8  19.25 1.8  C 18.3020833333333 1.8  17.3974609375 1.98984375  16.5361328125 2.36953125  C 15.6748046875 2.74921875  14.9296875 3.2625  14.30078125 3.909375  C 13.671875 4.55625  13.1728515625 5.32265625  12.8037109375 6.20859375  C 12.4345703125 7.09453125  12.25 8.025  12.25 9  C 12.25 9.975  12.4345703125 10.90546875  12.8037109375 11.79140625  C 13.1728515625 12.67734375  13.671875 13.44375  14.30078125 14.090625  C 14.9296875 14.7375  15.6748046875 15.25078125  16.5361328125 15.63046875  Z " fill-rule="nonzero" fill="#008fe0" stroke="none" transform="matrix(1 0 0 1 559 304 )" />
  </g>
</svg>