<?xml version="1.0" encoding="utf-8"?>
<svg version="1.1" xmlns:xlink="http://www.w3.org/1999/xlink" width="56px" height="34px" xmlns="http://www.w3.org/2000/svg">
  <g transform="matrix(1 0 0 1 -889 -238 )">
    <path d="M 1.39453125 23.60078125  C 0.46484375 21.50234375  0 19.3020833333333  0 17  C 0 14.6979166666667  0.46484375 12.49765625  1.39453125 10.39921875  C 2.32421875 8.30078125  3.568359375 6.49453125  5.126953125 4.98046875  C 6.685546875 3.46640625  8.544921875 2.2578125  10.705078125 1.3546875  C 12.865234375 0.451562500000001  15.1302083333333 0  17.5 0  L 38.5 0  C 40.8697916666667 0  43.134765625 0.451562500000001  45.294921875 1.3546875  C 47.455078125 2.2578125  49.314453125 3.46640625  50.873046875 4.98046875  C 52.431640625 6.49453125  53.67578125 8.30078125  54.60546875 10.39921875  C 55.53515625 12.49765625  56 14.6979166666667  56 17  C 56 19.3020833333333  55.53515625 21.50234375  54.60546875 23.60078125  C 53.67578125 25.69921875  52.431640625 27.50546875  50.873046875 29.01953125  C 49.314453125 30.53359375  47.455078125 31.7421875  45.294921875 32.6453125  C 43.134765625 33.5484375  40.8697916666667 34  38.5 34  L 17.5 34  C 15.1302083333333 34  12.865234375 33.5484375  10.705078125 32.6453125  C 8.544921875 31.7421875  6.685546875 30.53359375  5.126953125 29.01953125  C 3.568359375 27.50546875  2.32421875 25.69921875  1.39453125 23.60078125  Z M 33.072265625 29.52421875  C 34.794921875 30.24140625  36.6041666666667 30.6  38.5 30.6  C 40.3958333333333 30.6  42.205078125 30.24140625  43.927734375 29.52421875  C 45.650390625 28.80703125  47.140625 27.8375  48.3984375 26.615625  C 49.65625 25.39375  50.654296875 23.94609375  51.392578125 22.27265625  C 52.130859375 20.59921875  52.5 18.8416666666667  52.5 17  C 52.5 15.1583333333333  52.130859375 13.40078125  51.392578125 11.72734375  C 50.654296875 10.05390625  49.65625 8.60625  48.3984375 7.384375  C 47.140625 6.1625  45.650390625 5.19296875  43.927734375 4.47578125  C 42.205078125 3.75859375  40.3958333333333 3.4  38.5 3.4  C 36.6041666666667 3.4  34.794921875 3.75859375  33.072265625 4.47578125  C 31.349609375 5.19296875  29.859375 6.1625  28.6015625 7.384375  C 27.34375 8.60625  26.345703125 10.05390625  25.607421875 11.72734375  C 24.869140625 13.40078125  24.5 15.1583333333333  24.5 17  C 24.5 18.8416666666667  24.869140625 20.59921875  25.607421875 22.27265625  C 26.345703125 23.94609375  27.34375 25.39375  28.6015625 26.615625  C 29.859375 27.8375  31.349609375 28.80703125  33.072265625 29.52421875  Z " fill-rule="nonzero" fill="#008fe0" stroke="none" transform="matrix(1 0 0 1 889 238 )" />
  </g>
</svg>