<?xml version="1.0" encoding="utf-8"?>
<svg version="1.1" xmlns:xlink="http://www.w3.org/1999/xlink" width="288px" height="282px" xmlns="http://www.w3.org/2000/svg">
  <defs>
    <mask fill="white" id="clip1">
      <path d="M 0 282  L 0 103.400000000001  L 0 0  L 288 0  L 288 164  L 288 282  L 0 282  Z " fill-rule="evenodd" />
    </mask>
  </defs>
  <g transform="matrix(1 0 0 1 -26 -600 )">
    <path d="M 0 282  L 0 103.400000000001  L 0 0  L 288 0  L 288 164  L 288 282  L 0 282  Z " fill-rule="nonzero" fill="#ffffff" stroke="none" transform="matrix(1 0 0 1 26 600 )" />
    <path d="M 0 282  L 0 103.400000000001  L 0 0  L 288 0  L 288 164  L 288 282  L 0 282  Z " stroke-width="2" stroke-dasharray="9,4" stroke="#797979" fill="none" transform="matrix(1 0 0 1 26 600 )" mask="url(#clip1)" />
  </g>
</svg>