<?xml version="1.0" encoding="utf-8"?>
<svg version="1.1" xmlns:xlink="http://www.w3.org/1999/xlink" width="16px" height="21px" xmlns="http://www.w3.org/2000/svg">
  <g transform="matrix(1 0 0 1 -334 -72 )">
    <path d="M 15.7250859106529 1.2625250501002  C 15.9083619702177 1.40280561122244  16 1.56412825651302  16 1.74649298597195  C 16 1.92885771543086  15.9083619702177 2.09018036072144  15.7250859106529 2.23046092184369  L 10.5580398404904 6.18534801287116  L 4.92096219931271 10.5  L 15.7250859106529 18.7695390781563  C 15.9083619702177 18.9098196392786  16 19.0711422845691  16 19.2535070140281  C 16 19.435871743487  15.9083619702177 19.5971943887776  15.7250859106529 19.7374749498998  L 14.3505154639175 20.7895791583166  C 14.1672394043528 20.9298597194389  13.9564719358534 21  13.7182130584192 21  C 13.4799541809851 21  13.2691867124857 20.9298597194389  13.085910652921 20.7895791583166  L 0.274914089347068 10.9839679358717  C 0.0916380297823456 10.8436873747495  0 10.6823647294589  0 10.5  C 0 10.3176352705411  0.0916380297823456 10.1563126252505  0.274914089347068 10.0160320641283  L 13.085910652921 0.210420841683366  C 13.2691867124857 0.0701402805611221  13.4799541809851 0  13.7182130584192 0  C 13.9564719358534 0  14.1672394043528 0.0701402805611221  14.3505154639175 0.210420841683366  L 15.7250859106529 1.2625250501002  Z " fill-rule="nonzero" fill="#008fe0" stroke="none" transform="matrix(1 0 0 1 334 72 )" />
  </g>
</svg>