<?xml version="1.0" encoding="utf-8"?>
<svg version="1.1" xmlns:xlink="http://www.w3.org/1999/xlink" width="22px" height="22px" xmlns="http://www.w3.org/2000/svg">
  <g transform="matrix(1 0 0 1 -565 -173 )">
    <path d="M 21.6025806451613 3.03703703703702  C 21.8675268817204 3.38271604938272  22 3.80246913580247  22 4.29629629629629  C 22 4.79012345679011  21.8675268817204 5.20987654320988  21.6025806451613 5.55555555555555  L 11.3264516129032 18.962962962963  L 9.39612903225808 21.4814814814815  C 9.13118279569896 21.8271604938272  8.80946236559142 22  8.43096774193547 22  C 8.0524731182796 22  7.73075268817206 21.8271604938272  7.46580645161293 21.4814814814815  L 5.53548387096771 18.962962962963  L 0.397419354838727 12.2592592592593  C 0.132473118279601 11.9135802469136  0 11.4938271604938  0 11  C 0 10.5061728395062  0.132473118279601 10.0864197530864  0.397419354838727 9.74074074074074  L 2.32774193548388 7.22222222222221  C 2.592688172043 6.87654320987655  2.91440860215054 6.70370370370371  3.29290322580649 6.70370370370371  C 3.67139784946236 6.70370370370371  3.9931182795699 6.87654320987655  4.25806451612902 7.22222222222221  L 8.43096774193547 12.6851851851852  L 10.8505085688735 9.52356465940866  L 17.741935483871 0.518518518518533  C 18.0068817204301 0.172839506172833  18.3286021505376 0  18.7070967741935 0  C 19.0855913978495 0  19.407311827957 0.172839506172833  19.6722580645161 0.518518518518533  L 21.6025806451613 3.03703703703702  Z " fill-rule="nonzero" fill="#008fe0" stroke="none" transform="matrix(1 0 0 1 565 173 )" />
  </g>
</svg>