<?xml version="1.0" encoding="utf-8"?>
<svg version="1.1" xmlns:xlink="http://www.w3.org/1999/xlink" width="52px" height="24px" xmlns="http://www.w3.org/2000/svg">
  <g transform="matrix(1 0 0 1 -205 -144 )">
    <path d="M 50.6929347826087 10.6136071887035  C 51.5643115942029 10.9730423620026  52 11.4351732991014  52 12  C 52 12.5545571245186  51.5643115942029 13.0218228498074  50.6929347826087 13.4017971758665  L 27.695652173913 23.4300385109114  C 26.7771739130435 23.8100128369705  25.705615942029 24  24.4809782608696 24  C 23.2798913043478 24  22.2201086956522 23.8100128369705  21.3016304347826 23.4300385109114  L 18.6521739130435 22.2747111681643  C 17.7572463768116 21.8844672657253  17.3097826086957 21.4172015404365  17.3097826086957 20.8729139922978  C 17.3097826086957 20.3286264441592  17.7572463768116 19.8613607188703  18.6521739130435 19.4711168164313  L 29.0027173913044 15  L 4.13315217391304 15  C 2.90851449275362 14.9576379974326  1.91349637681159 14.7650834403081  1.14809782608696 14.379974326059  C 0.382699275362319 13.99486521181  0 13.5301668806162  0 12.9858793324775  L 0 11.0141206675225  C 0 10.4698331193838  0.382699275362319 10.00513478819  1.14809782608696 9.62002567394095  C 1.91349637681159 9.23491655969191  2.90851449275362 9.04236200256739  4.13315217391304 9  L 29.0027173913044 9  L 18.6521739130435 4.51347881899872  C 17.7572463768116 4.14377406931964  17.3097826086957 3.6816431322208  17.3097826086957 3.12708600770218  C 17.3097826086957 2.57252888318357  17.7572463768116 2.11039794608472  18.6521739130435 1.74069319640565  L 21.3016304347826 0.585365853658537  C 22.1965579710145 0.195121951219511  23.2563405797101 0  24.4809782608696 0  C 25.7291666666667 0  26.8007246376812 0.195121951219511  27.695652173913 0.585365853658537  L 50.6929347826087 10.6136071887035  Z " fill-rule="nonzero" fill="#000000" stroke="none" transform="matrix(1 0 0 1 205 144 )" />
  </g>
</svg>