<?xml version="1.0" encoding="utf-8"?>
<svg version="1.1" xmlns:xlink="http://www.w3.org/1999/xlink" width="52px" height="24px" xmlns="http://www.w3.org/2000/svg">
  <g transform="matrix(1 0 0 1 -119 -144 )">
    <path d="M 1.30706521739131 10.6136071887035  C 0.4356884057971 10.9730423620026  0 11.4351732991014  0 12  C 0 12.5545571245186  0.4356884057971 13.0218228498074  1.30706521739131 13.4017971758665  L 24.304347826087 23.4300385109114  C 25.2228260869565 23.8100128369705  26.294384057971 24  27.5190217391304 24  C 28.7201086956522 24  29.7798913043478 23.8100128369705  30.6983695652174 23.4300385109114  L 33.3478260869565 22.2747111681643  C 34.2427536231884 21.8844672657253  34.6902173913044 21.4172015404365  34.6902173913044 20.8729139922978  C 34.6902173913044 20.3286264441592  34.2427536231884 19.8613607188703  33.3478260869565 19.4711168164313  L 22.9972826086956 15  L 47.866847826087 15  C 49.0914855072464 14.9576379974326  50.0865036231884 14.7650834403081  50.851902173913 14.379974326059  C 51.6173007246377 13.99486521181  52 13.5301668806162  52 12.9858793324775  L 52 11.0141206675225  C 52 10.4698331193838  51.6173007246377 10.00513478819  50.851902173913 9.62002567394095  C 50.0865036231884 9.23491655969191  49.0914855072464 9.04236200256739  47.866847826087 9  L 22.9972826086956 9  L 33.3478260869565 4.51347881899872  C 34.2427536231884 4.14377406931964  34.6902173913044 3.6816431322208  34.6902173913044 3.12708600770218  C 34.6902173913044 2.57252888318357  34.2427536231884 2.11039794608472  33.3478260869565 1.74069319640565  L 30.6983695652174 0.585365853658537  C 29.8034420289855 0.195121951219511  28.7436594202899 0  27.5190217391304 0  C 26.2708333333333 0  25.1992753623188 0.195121951219511  24.304347826087 0.585365853658537  L 1.30706521739131 10.6136071887035  Z " fill-rule="nonzero" fill="#000000" stroke="none" transform="matrix(1 0 0 1 119 144 )" />
  </g>
</svg>