<?xml version="1.0" encoding="utf-8"?>
<svg version="1.1" xmlns:xlink="http://www.w3.org/1999/xlink" width="39px" height="23px" xmlns="http://www.w3.org/2000/svg">
  <g transform="matrix(1 0 0 1 -246 -118 )">
    <path d="M 21.166259765625 15.066796875  C 21.680419921875 13.934765625  21.9375 12.7458333333333  21.9375 11.5  C 21.9375 10.2541666666667  21.680419921875 9.065234375  21.166259765625 7.933203125  C 20.652099609375 6.801171875  19.95703125 5.821875  19.0810546875 4.9953125  C 18.205078125 4.16875  17.167236328125 3.512890625  15.967529296875 3.027734375  C 14.767822265625 2.542578125  13.5078125 2.3  12.1875 2.3  C 10.8671875 2.3  9.607177734375 2.542578125  8.407470703125 3.027734375  C 7.207763671875 3.512890625  6.169921875 4.16875  5.2939453125 4.9953125  C 4.41796875 5.821875  3.722900390625 6.801171875  3.208740234375 7.933203125  C 2.694580078125 9.065234375  2.4375 10.2541666666667  2.4375 11.5  C 2.4375 12.7458333333333  2.694580078125 13.934765625  3.208740234375 15.066796875  C 3.722900390625 16.198828125  4.41796875 17.178125  5.2939453125 18.0046875  C 6.169921875 18.83125  7.207763671875 19.487109375  8.407470703125 19.972265625  C 9.607177734375 20.457421875  10.8671875 20.7  12.1875 20.7  C 13.5078125 20.7  14.767822265625 20.457421875  15.967529296875 19.972265625  C 17.167236328125 19.487109375  18.205078125 18.83125  19.0810546875 18.0046875  C 19.95703125 17.178125  20.652099609375 16.198828125  21.166259765625 15.066796875  Z M 35.791259765625 15.066796875  C 36.305419921875 13.934765625  36.5625 12.7458333333333  36.5625 11.5  C 36.5625 10.2541666666667  36.305419921875 9.065234375  35.791259765625 7.933203125  C 35.277099609375 6.801171875  34.58203125 5.821875  33.7060546875 4.9953125  C 32.830078125 4.16875  31.792236328125 3.512890625  30.592529296875 3.027734375  C 29.392822265625 2.542578125  28.1328125 2.3  26.8125 2.3  L 19.4619140625 2.3  C 20.97265625 3.378125  22.169189453125 4.71979166666666  23.051513671875 6.325  C 23.933837890625 7.93020833333333  24.375 9.65520833333333  24.375 11.5  C 24.375 13.3447916666667  23.933837890625 15.0697916666667  23.051513671875 16.675  C 22.169189453125 18.2802083333333  20.97265625 19.621875  19.4619140625 20.7  L 26.8125 20.7  C 28.1328125 20.7  29.392822265625 20.457421875  30.592529296875 19.972265625  C 31.792236328125 19.487109375  32.830078125 18.83125  33.7060546875 18.0046875  C 34.58203125 17.178125  35.277099609375 16.198828125  35.791259765625 15.066796875  Z M 38.02880859375 7.034765625  C 38.67626953125 8.454296875  39 9.94270833333333  39 11.5  C 39 13.0572916666667  38.67626953125 14.545703125  38.02880859375 15.965234375  C 37.38134765625 17.384765625  36.514892578125 18.606640625  35.429443359375 19.630859375  C 34.343994140625 20.655078125  33.049072265625 21.47265625  31.544677734375 22.08359375  C 30.040283203125 22.69453125  28.462890625 23  26.8125 23  L 12.1875 23  C 10.537109375 23  8.959716796875 22.69453125  7.455322265625 22.08359375  C 5.950927734375 21.47265625  4.656005859375 20.655078125  3.570556640625 19.630859375  C 2.485107421875 18.606640625  1.61865234375 17.384765625  0.97119140625 15.965234375  C 0.32373046875 14.545703125  0 13.0572916666667  0 11.5  C 0 9.94270833333333  0.32373046875 8.454296875  0.97119140625 7.034765625  C 1.61865234375 5.615234375  2.485107421875 4.393359375  3.570556640625 3.369140625  C 4.656005859375 2.344921875  5.950927734375 1.52734375  7.455322265625 0.916406249999999  C 8.959716796875 0.305468750000001  10.537109375 0  12.1875 0  L 26.8125 0  C 28.462890625 0  30.040283203125 0.305468750000001  31.544677734375 0.916406249999999  C 33.049072265625 1.52734375  34.343994140625 2.344921875  35.429443359375 3.369140625  C 36.514892578125 4.393359375  37.38134765625 5.615234375  38.02880859375 7.034765625  Z " fill-rule="nonzero" fill="#797070" stroke="none" transform="matrix(1 0 0 1 246 118 )" />
  </g>
</svg>