<?xml version="1.0" encoding="utf-8"?>
<svg version="1.1" xmlns:xlink="http://www.w3.org/1999/xlink" width="125px" height="22px" xmlns="http://www.w3.org/2000/svg">
  <g transform="matrix(1 0 0 1 -844 -336 )">
    <path d="M 124.27662037037 10.2704811443433  C 124.75887345679 10.4612050281751  125 10.6805374945817  125 10.9284785435631  C 125 11.1954919809276  124.75887345679 11.4243606415258  124.27662037037 11.6150845253576  L 96.4988425925926 21.742522756827  C 95.727237654321 22.0095361941916  94.8832947530864 22.0667533593411  93.9670138888889 21.9141742522757  C 93.0507330246914 21.742522756827  92.5925925925926 21.4659731252709  92.5925925925926 21.0845253576073  L 92.5925925925926 14.6762028608583  L 2.31481481481481 14.6762028608583  C 1.63966049382716 14.6762028608583  1.08506944444444 14.5903771131339  0.651041666666667 14.4187256176853  C 0.217013888888889 14.2470741222367  0 14.0277416558301  0 13.7607282184655  L 0 8.26788036410923  C 0 8.00086692674469  0.217013888888889 7.7815344603381  0.651041666666667 7.60988296488947  C 1.08506944444444 7.43823146944083  1.63966049382716 7.35240572171652  2.31481481481481 7.35240572171652  L 92.5925925925926 7.35240572171652  L 92.5925925925926 0.944083224967491  C 92.5925925925926 0.543563068920677  93.0507330246914 0.267013437364541  93.9670138888889 0.11443433029909  C 94.8832947530864 -0.0381447767663659  95.727237654321 0.00953619419158902  96.4988425925926 0.257477243172952  L 124.27662037037 10.2704811443433  Z " fill-rule="nonzero" fill="#0099ff" stroke="none" transform="matrix(1 0 0 1 844 336 )" />
  </g>
</svg>