<?xml version="1.0" encoding="utf-8"?>
<svg version="1.1" xmlns:xlink="http://www.w3.org/1999/xlink" width="22px" height="64px" xmlns="http://www.w3.org/2000/svg">
  <g transform="matrix(1 0 0 1 -844 -423 )">
    <path d="M 21.0571428571429 47.4074074074074  C 21.4571428571429 47.4074074074074  21.7333333333333 47.641975308642  21.8857142857143 48.1111111111111  C 22.0380952380952 48.5802469135803  21.9904761904762 49.0123456790123  21.7428571428571 49.4074074074074  L 11.7428571428571 63.6296296296296  C 11.552380952381 63.8765432098765  11.3333333333333 64  11.0857142857143 64  C 10.8190476190476 64  10.5904761904762 63.8765432098765  10.4 63.6296296296296  L 0.257142857142857 49.4074074074074  C 0.0095238095238095 49.0123456790123  -0.0380952380952381 48.5802469135803  0.114285714285714 48.1111111111111  C 0.285714285714286 47.641975308642  0.561904761904762 47.4074074074074  0.942857142857143 47.4074074074074  L 7.34285714285714 47.4074074074074  L 7.34285714285714 1.18518518518518  C 7.34285714285714 0.839506172839499  7.42857142857143 0.555555555555557  7.6 0.333333333333336  C 7.77142857142857 0.111111111111114  7.99047619047619 0  8.25714285714286 0  L 13.7428571428571 0  C 14.0095238095238 0  14.2285714285714 0.111111111111114  14.4 0.333333333333336  C 14.5714285714286 0.555555555555557  14.6571428571429 0.839506172839499  14.6571428571429 1.18518518518518  L 14.6571428571429 47.4074074074074  L 21.0571428571429 47.4074074074074  Z " fill-rule="nonzero" fill="#0099ff" stroke="none" transform="matrix(1 0 0 1 844 423 )" />
  </g>
</svg>