<?xml version="1.0" encoding="utf-8"?>
<svg version="1.1" xmlns:xlink="http://www.w3.org/1999/xlink" width="543px" height="22px" xmlns="http://www.w3.org/2000/svg">
  <g transform="matrix(1 0 0 1 -312 -496 )">
    <path d="M 540.171875 7.5812743823147  C 542.057291666667 7.75292587776333  543 7.97225834416992  543 8.23927178153446  L 543 13.7321196358908  C 543 13.9991330732553  542.057291666667 14.2184655396619  540.171875 14.3901170351105  C 538.286458333333 14.5617685305592  535.877314814815 14.6475942782835  532.944444444444 14.6475942782835  L 140.777777777778 14.6475942782835  L 140.777777777778 21.0559167750325  C 140.777777777778 21.4564369310793  138.787615740741 21.7329865626355  134.807291666667 21.8855656697009  C 130.826967592593 22.0381447767664  127.16087962963 21.9904638058084  123.809027777778 21.742522756827  L 3.14236111111111 11.7295188556567  C 1.04745370370371 11.5387949718249  0 11.3194625054183  0 11.0715214564369  C 0 10.8045080190724  1.04745370370371 10.5756393584742  3.14236111111111 10.3849154746424  L 123.809027777778 0.257477243172952  C 127.16087962963 -0.00953619419159635  130.826967592593 -0.0667533593411402  134.807291666667 0.0858257477243183  C 138.787615740741 0.257477243172952  140.777777777778 0.534026874729085  140.777777777778 0.915474642392717  L 140.777777777778 7.32379713914174  L 532.944444444444 7.32379713914174  C 535.877314814815 7.32379713914174  538.286458333333 7.40962288686606  540.171875 7.5812743823147  Z " fill-rule="nonzero" fill="#0099ff" stroke="none" transform="matrix(1 0 0 1 312 496 )" />
  </g>
</svg>