<?xml version="1.0" encoding="utf-8"?>
<svg version="1.1" xmlns:xlink="http://www.w3.org/1999/xlink" width="223px" height="22px" xmlns="http://www.w3.org/2000/svg">
  <g transform="matrix(1 0 0 1 -144 -373 )">
    <path d="M 221.709490740741 10.2704811443433  C 222.569830246914 10.4612050281751  223 10.6805374945817  223 10.9284785435631  C 223 11.1954919809276  222.569830246914 11.4243606415258  221.709490740741 11.6150845253576  L 172.153935185185 21.742522756827  C 170.777391975309 22.0095361941916  169.271797839506 22.0667533593411  167.637152777778 21.9141742522757  C 166.002507716049 21.742522756827  165.185185185185 21.4659731252709  165.185185185185 21.0845253576073  L 165.185185185185 14.6762028608583  L 4.12962962962963 14.6762028608583  C 2.92515432098765 14.6762028608583  1.93576388888889 14.5903771131339  1.16145833333333 14.4187256176853  C 0.387152777777778 14.2470741222367  0 14.0277416558301  0 13.7607282184655  L 0 8.26788036410923  C 0 8.00086692674469  0.387152777777778 7.7815344603381  1.16145833333333 7.60988296488947  C 1.93576388888889 7.43823146944083  2.92515432098765 7.35240572171652  4.12962962962963 7.35240572171652  L 165.185185185185 7.35240572171652  L 165.185185185185 0.944083224967491  C 165.185185185185 0.543563068920677  166.002507716049 0.267013437364541  167.637152777778 0.11443433029909  C 169.271797839506 -0.0381447767663659  170.777391975309 0.00953619419158902  172.153935185185 0.257477243172952  L 221.709490740741 10.2704811443433  Z " fill-rule="nonzero" fill="#0099ff" stroke="none" transform="matrix(1 0 0 1 144 373 )" />
  </g>
</svg>