<?xml version="1.0" encoding="utf-8"?>
<svg version="1.1" xmlns:xlink="http://www.w3.org/1999/xlink" width="571px" height="22px" xmlns="http://www.w3.org/2000/svg">
  <g transform="matrix(1 0 0 1 -319 -443 )">
    <path d="M 3.30439814814818 10.2704811443433  C 1.10146604938264 10.4612050281751  0 10.6805374945817  0 10.9284785435631  C 0 11.1954919809276  1.10146604938264 11.4243606415258  3.30439814814818 11.6150845253576  L 130.193287037037 21.742522756827  C 133.717978395062 22.0095361941916  137.573109567901 22.0667533593411  141.758680555556 21.9141742522757  C 145.94425154321 21.742522756827  148.037037037037 21.4659731252709  148.037037037037 21.0845253576073  L 148.037037037037 14.6762028608583  L 560.425925925926 14.6762028608583  C 563.510030864198 14.6762028608583  566.043402777778 14.5903771131339  568.026041666667 14.4187256176853  C 570.008680555556 14.2470741222367  571 14.0277416558301  571 13.7607282184655  L 571 8.26788036410923  C 571 8.00086692674469  570.008680555556 7.7815344603381  568.026041666667 7.60988296488947  C 566.043402777778 7.43823146944083  563.510030864198 7.35240572171652  560.425925925926 7.35240572171652  L 148.037037037037 7.35240572171652  L 148.037037037037 0.944083224967491  C 148.037037037037 0.543563068920677  145.94425154321 0.267013437364541  141.758680555556 0.11443433029909  C 137.573109567901 -0.0381447767663659  133.717978395062 0.00953619419158902  130.193287037037 0.257477243172952  L 3.30439814814818 10.2704811443433  Z " fill-rule="nonzero" fill="#0099ff" stroke="none" transform="matrix(1 0 0 1 319 443 )" />
  </g>
</svg>