<?xml version="1.0" encoding="utf-8"?>
<svg version="1.1" xmlns:xlink="http://www.w3.org/1999/xlink" width="138px" height="110px" xmlns="http://www.w3.org/2000/svg">
  <defs>
    <filter x="134px" y="306px" width="138px" height="110px" filterUnits="userSpaceOnUse" id="filter5">
      <feOffset dx="1" dy="1" in="SourceAlpha" result="shadowOffsetInner" />
      <feGaussianBlur stdDeviation="2.5" in="shadowOffsetInner" result="shadowGaussian" />
      <feComposite in2="shadowGaussian" operator="atop" in="SourceAlpha" result="shadowComposite" />
      <feColorMatrix type="matrix" values="0 0 0 0 0  0 0 0 0 0  0 0 0 0 0  0 0 0 0.698039215686274 0  " in="shadowComposite" />
    </filter>
    <g id="widget6">
      <path d="M 202 311  C 237.28 311  265 332.56  265 360  C 265 387.44  237.28 409  202 409  C 166.72 409  139 387.44  139 360  C 139 332.56  166.72 311  202 311  Z " fill-rule="nonzero" fill="#009dd9" stroke="none" fill-opacity="0" />
      <path d="M 202 311  C 237.28 311  265 332.56  265 360  C 265 387.44  237.28 409  202 409  C 166.72 409  139 387.44  139 360  C 139 332.56  166.72 311  202 311  Z " stroke-width="2" stroke="#ffffff" fill="none" />
    </g>
  </defs>
  <g transform="matrix(1 0 0 1 -134 -306 )">
    <use xlink:href="#widget6" filter="url(#filter5)" />
    <use xlink:href="#widget6" />
  </g>
</svg>