<?xml version="1.0" encoding="utf-8"?>
<svg version="1.1" xmlns:xlink="http://www.w3.org/1999/xlink" width="46px" height="14px" xmlns="http://www.w3.org/2000/svg">
  <g transform="matrix(1 0 0 1 -177 -521 )">
    <path d="M 45.5390781563126 11.4501718213058  C 45.8463593854376 11.610538373425  46 11.794959908362  46 12.0034364261169  C 46 12.2119129438717  45.8463593854376 12.3963344788087  45.5390781563126 12.5567010309278  L 43.2344689378758 13.7594501718213  C 42.9271877087508 13.9198167239405  42.5738142952572 14  42.1743486973948 14  C 41.7748830995324 14  41.4215096860387 13.9198167239405  41.1142284569138 13.7594501718213  C 41.1142284569138 13.7594501718213  36.7839809423556 8.62329891190518  30.4447797849362 5.92260058099998  C 28.1836644970884 4.95929461669436  25.6669577945425 4.30584192439858  23 4.30584192439858  C 17.577896075851 4.30584192439858  12.776834229195 7.00679811828616  9.48203142357741 9.5213068252898  C 6.61273732460631 11.7110782381695  4.88577154308618 13.7594501718213  4.88577154308618 13.7594501718213  C 4.57849031396125 13.9198167239405  4.22511690046761 14  3.82565130260522 14  C 3.42618570474281 14  3.07281229124916 13.9198167239405  2.76553106212424 13.7594501718213  L 0.460921843687373 12.5567010309278  C 0.153640614562448 12.3963344788087  0 12.2119129438717  0 12.0034364261169  C 0 11.794959908362  0.153640614562448 11.610538373425  0.460921843687373 11.4501718213058  L 21.939879759519 0.2405498281787  C 22.247160988644 0.0801832760595289  22.6005344021376 0  23 0  C 23.3994655978624 0  23.7528390113561 0.0801832760595289  24.060120240481 0.2405498281787  L 45.5390781563126 11.4501718213058  Z " fill-rule="nonzero" fill="#ffffff" stroke="none" transform="matrix(1 0 0 1 177 521 )" />
  </g>
</svg>